<svg width="55" height="55" viewBox="0 0 55 55" fill="none" xmlns="http://www.w3.org/2000/svg">
<path d="M23.1229 35.7271L26.3542 38.9583L37.8125 27.5L26.3542 16.0417L23.1229 19.2729L29.0354 25.2083H6.875V29.7917H29.0354L23.1229 35.7271ZM43.5417 6.875H11.4583C10.2428 6.875 9.07697 7.35789 8.21743 8.21743C7.35789 9.07697 6.875 10.2428 6.875 11.4583V20.625H11.4583V11.4583H43.5417V43.5417H11.4583V34.375H6.875V43.5417C6.875 44.7572 7.35789 45.923 8.21743 46.7826C9.07697 47.6421 10.2428 48.125 11.4583 48.125H43.5417C46.0625 48.125 48.125 46.0625 48.125 43.5417V11.4583C48.125 8.9375 46.0625 6.875 43.5417 6.875Z" fill="black"/>
</svg>
